<svg width="51" height="50" viewBox="0 0 51 50" fill="none" xmlns="http://www.w3.org/2000/svg">
<path d="M46.3333 15.4792V27.9792C46.3333 31.1042 45.2917 33.7083 43.4583 35.5417C41.6458 37.3542 39.0417 38.3958 35.9167 38.3958V42.8333C35.9167 44.5 34.0625 45.5001 32.6875 44.5834L23.4167 38.3958H19C19.1667 37.7708 19.25 37.125 19.25 36.4584C19.25 34.3334 18.4375 32.3751 17.1042 30.8959C15.6042 29.1876 13.375 28.125 10.9167 28.125C8.58333 28.125 6.45834 29.0834 4.93751 30.6459C4.75001 29.8126 4.66667 28.9167 4.66667 27.9792V15.4792C4.66667 9.22917 8.83333 5.0625 15.0833 5.0625H35.9167C42.1667 5.0625 46.3333 9.22917 46.3333 15.4792Z" stroke="#292D32" stroke-width="1.5" stroke-miterlimit="10" stroke-linecap="round" stroke-linejoin="round"/>
<path d="M19.25 36.4583C19.25 37.125 19.1667 37.7708 19 38.3958C18.8125 39.2292 18.4792 40.0417 18.0417 40.75C16.6042 43.1667 13.9583 44.7917 10.9167 44.7917C8.77083 44.7917 6.83332 43.9791 5.37499 42.6458C4.74999 42.1041 4.2083 41.4583 3.79164 40.75C3.0208 39.5 2.58333 38.0208 2.58333 36.4583C2.58333 34.2083 3.47918 32.1459 4.93751 30.6459C6.45834 29.0834 8.58333 28.125 10.9167 28.125C13.375 28.125 15.6042 29.1875 17.1042 30.8959C18.4375 32.375 19.25 34.3333 19.25 36.4583Z" stroke="#292D32" stroke-width="1.5" stroke-miterlimit="10" stroke-linecap="round" stroke-linejoin="round"/>
<path d="M13.1458 38.6251L8.72919 34.2292" stroke="#292D32" stroke-width="1.5" stroke-miterlimit="10" stroke-linecap="round" stroke-linejoin="round"/>
<path d="M13.1041 34.2917L8.68748 38.6876" stroke="#292D32" stroke-width="1.5" stroke-miterlimit="10" stroke-linecap="round" stroke-linejoin="round"/>
<path d="M18.2083 21.875H32.7917" stroke="#292D32" stroke-width="1.5" stroke-miterlimit="10" stroke-linecap="round" stroke-linejoin="round"/>
</svg>
