<svg width="22" height="22" viewBox="0 0 22 22" fill="none" xmlns="http://www.w3.org/2000/svg">
<path fill-rule="evenodd" clip-rule="evenodd" d="M5.72921 3.20831C3.20837 3.20831 3.20837 3.39898 3.20837 5.72915V5.75206C3.20837 6.76681 3.20837 7.50015 3.45679 7.80998C3.69971 8.11065 4.42112 8.24998 5.72921 8.24998C7.03729 8.24998 7.75871 8.10973 8.00162 7.80906C8.25004 7.50015 8.25004 6.76681 8.25004 5.75115C8.25004 3.39898 8.25004 3.20831 5.72921 3.20831ZM5.72921 9.62498C4.18371 9.62498 3.02412 9.46273 2.38704 8.67165C1.83337 7.98506 1.83337 7.04823 1.83337 5.75206L2.52087 5.72915H1.83337C1.83337 3.09831 1.99929 1.83331 5.72921 1.83331C9.45912 1.83331 9.62504 3.09831 9.62504 5.72915C9.62504 7.04731 9.62504 7.98506 9.07137 8.67165C8.43429 9.46273 7.27471 9.62498 5.72921 9.62498Z" fill="#2E2C34"/>
<path fill-rule="evenodd" clip-rule="evenodd" d="M15.8126 3.20831C13.2917 3.20831 13.2917 3.39898 13.2917 5.72915V5.75206C13.2917 6.76681 13.2917 7.50015 13.5402 7.80998C13.7831 8.11065 14.5045 8.24998 15.8126 8.24998C17.1207 8.24998 17.8421 8.10973 18.085 7.80906C18.3334 7.50015 18.3334 6.76681 18.3334 5.75115C18.3334 3.39898 18.3334 3.20831 15.8126 3.20831ZM15.8126 9.62498C14.2671 9.62498 13.1075 9.46273 12.4704 8.67165C11.9167 7.98506 11.9167 7.04823 11.9167 5.75206L12.6042 5.72915H11.9167C11.9167 3.09831 12.0827 1.83331 15.8126 1.83331C19.5425 1.83331 19.7084 3.09831 19.7084 5.72915C19.7084 7.04731 19.7084 7.98506 19.1547 8.67165C18.5177 9.46273 17.3581 9.62498 15.8126 9.62498Z" fill="#2E2C34"/>
<path fill-rule="evenodd" clip-rule="evenodd" d="M5.72921 13.2916C3.20837 13.2916 3.20837 13.4823 3.20837 15.8125V15.8354C3.20837 16.8501 3.20837 17.5835 3.45679 17.8933C3.69971 18.194 4.42112 18.3333 5.72921 18.3333C7.03729 18.3333 7.75871 18.193 8.00162 17.8924C8.25004 17.5835 8.25004 16.8501 8.25004 15.8345C8.25004 13.4823 8.25004 13.2916 5.72921 13.2916ZM5.72921 19.7083C4.18371 19.7083 3.02412 19.546 2.38704 18.755C1.83337 18.0684 1.83337 17.1315 1.83337 15.8354L2.52087 15.8125H1.83337C1.83337 13.1816 1.99929 11.9166 5.72921 11.9166C9.45912 11.9166 9.62504 13.1816 9.62504 15.8125C9.62504 17.1306 9.62504 18.0684 9.07137 18.755C8.43429 19.546 7.27471 19.7083 5.72921 19.7083Z" fill="#2E2C34"/>
<path fill-rule="evenodd" clip-rule="evenodd" d="M15.8126 13.2916C13.2917 13.2916 13.2917 13.4823 13.2917 15.8125V15.8354C13.2917 16.8501 13.2917 17.5835 13.5402 17.8933C13.7831 18.194 14.5045 18.3333 15.8126 18.3333C17.1207 18.3333 17.8421 18.193 18.085 17.8924C18.3334 17.5835 18.3334 16.8501 18.3334 15.8345C18.3334 13.4823 18.3334 13.2916 15.8126 13.2916ZM15.8126 19.7083C14.2671 19.7083 13.1075 19.546 12.4704 18.755C11.9167 18.0684 11.9167 17.1315 11.9167 15.8354L12.6042 15.8125H11.9167C11.9167 13.1816 12.0827 11.9166 15.8126 11.9166C19.5425 11.9166 19.7084 13.1816 19.7084 15.8125C19.7084 17.1306 19.7084 18.0684 19.1547 18.755C18.5177 19.546 17.3581 19.7083 15.8126 19.7083Z" fill="#2E2C34"/>
</svg>
