<svg width="50" height="50" viewBox="0 0 50 50" fill="none" xmlns="http://www.w3.org/2000/svg">
<path d="M45.8334 15.4792V27.9792C45.8334 31.1042 44.7917 33.7083 42.9583 35.5417C41.1458 37.3542 38.5417 38.3958 35.4167 38.3958V42.8333C35.4167 44.5 33.5625 45.5001 32.1875 44.5834L22.9167 38.3958H18.5C18.6667 37.7708 18.75 37.125 18.75 36.4584C18.75 34.3334 17.9375 32.3751 16.6042 30.8959C15.1042 29.1876 12.875 28.125 10.4167 28.125C8.08335 28.125 5.95836 29.0834 4.43753 30.6459C4.25003 29.8126 4.16669 28.9167 4.16669 27.9792V15.4792C4.16669 9.22917 8.33335 5.0625 14.5834 5.0625H35.4167C41.6667 5.0625 45.8334 9.22917 45.8334 15.4792Z" stroke="#292D32" stroke-width="1.5" stroke-miterlimit="10" stroke-linecap="round" stroke-linejoin="round"/>
<path d="M18.75 36.4583C18.75 38.0208 18.3125 39.5 17.5417 40.75C17.1042 41.5 16.5417 42.1667 15.8958 42.7083C14.4375 44.0208 12.5208 44.7917 10.4166 44.7917C7.37498 44.7917 4.72912 43.1667 3.29162 40.75C2.52078 39.5 2.08331 38.0208 2.08331 36.4583C2.08331 33.8333 3.29165 31.4792 5.20831 29.9583C6.64581 28.8125 8.45831 28.125 10.4166 28.125C15.0208 28.125 18.75 31.8542 18.75 36.4583Z" stroke="#292D32" stroke-width="1.5" stroke-miterlimit="10" stroke-linecap="round" stroke-linejoin="round"/>
<path d="M7.16663 36.4584L9.22911 38.5209L13.6666 34.4167" stroke="#292D32" stroke-width="1.5" stroke-linecap="round" stroke-linejoin="round"/>
<path d="M17.7083 21.875H32.2916" stroke="#292D32" stroke-width="1.5" stroke-miterlimit="10" stroke-linecap="round" stroke-linejoin="round"/>
</svg>
