<svg width="22" height="22" viewBox="0 0 22 22" fill="none" xmlns="http://www.w3.org/2000/svg">
<g clip-path="url(#clip0_65_1014)">
<path d="M16.197 6.91798C16.167 6.81772 16.0343 6.76759 15.8073 6.75864M16.197 6.91798C16.2484 7.08806 16.167 7.37631 15.94 7.80779L15.8073 6.75864M16.197 6.91798L16.2847 6.89149M16.197 6.91798L16.2848 6.89172C16.2956 6.90869 16.3017 6.92618 16.3071 6.94395L16.3073 6.94471C16.3305 7.02116 16.3283 7.25623 16.0602 7.77328L16.0089 7.84401L16.0023 7.85306L14.8395 9.45475L16.2847 6.89149M15.8073 6.75864C15.7602 6.75685 15.7088 6.75685 15.6595 6.75685L15.8073 6.75864ZM16.2847 6.89149L16.6756 6.77336C16.6812 6.79175 16.686 6.81018 16.6902 6.82861C16.6902 6.82867 16.6902 6.82872 16.6902 6.82877C16.7362 7.0315 16.7017 7.23509 16.6535 7.40288C16.6032 7.57809 16.5212 7.7701 16.4159 7.97633L16.4904 8.0298M16.2847 6.89149L16.4101 7.98761M16.3999 8.00735C16.3942 8.01838 16.3884 8.02946 16.3826 8.04057L16.3657 8.07254L16.3445 8.10176L15.1809 9.70264L15.2441 9.74855M16.3999 8.00735L15.2698 1.85841C16.4025 2.94966 16.3273 4.25577 16.2507 5.58479C16.2369 5.82352 16.2231 6.063 16.2163 6.30209C16.5161 6.37908 16.7066 6.53663 16.7859 6.79982C16.8715 7.08269 16.7773 7.48373 16.4904 8.0298M16.3999 8.00735L16.4711 8.05842L16.4001 8.00692M16.3999 8.00735L16.4001 8.00692M15.2441 9.74855L15.1809 9.70265L15.1304 9.77217L15.1303 9.77229C14.7025 10.3604 14.2264 11.0136 13.6176 11.5119L13.6471 11.5526L13.9744 11.2757C14.4592 10.8227 14.8546 10.285 15.2441 9.74855ZM15.2441 9.74855L16.4711 8.05844C16.4743 8.05396 16.4775 8.04904 16.4807 8.04412C16.4839 8.03919 16.4872 8.03427 16.4904 8.0298M16.4904 8.0298L16.4101 7.98761M10.2065 0.501289C10.9458 0.535062 11.9165 0.754611 12.825 1.08337C13.7447 1.41615 14.523 1.833 14.9228 2.21841L14.9229 2.21849C15.4864 2.76134 15.6971 3.35865 15.7634 4.02382C15.7847 4.23661 15.7912 4.44821 15.7893 4.66305L15.4143 4.71247C14.1687 4.87664 13.0676 4.63661 11.8766 4.37699C11.6946 4.33734 11.5106 4.29722 11.3237 4.25803C9.93085 3.96598 8.42901 3.74478 6.66778 4.35238L6.49503 4.41198C6.49639 4.16067 6.50299 3.91387 6.51546 3.6806C6.53516 3.52652 6.57149 3.36964 6.62409 3.21114C6.9463 2.25423 7.97227 1.48386 9.27778 1.10705L10.2065 0.501289ZM10.2065 0.501289C10.1512 0.498821 10.1185 0.501781 10.1017 0.504407C10.0963 0.510794 10.0886 0.520298 10.0782 0.533973C10.0737 0.539807 10.0684 0.54689 10.0624 0.555037C10.0196 0.612393 9.93762 0.722481 9.82478 0.820546C9.68477 0.942226 9.50919 1.04028 9.27784 1.10703L10.2065 0.501289ZM9.21253 11.9931C9.72662 12.2546 10.325 12.4148 11.0471 12.4162L9.21253 11.9931ZM9.21253 11.9931C9.21724 11.9815 9.22189 11.9701 9.22648 11.9588C9.73547 12.2313 10.331 12.4007 11.0471 12.4024C11.0475 12.4024 11.0479 12.4024 11.0482 12.4024H11.0483C11.8761 12.4039 12.5429 12.2015 13.1014 11.873L9.21253 11.9931ZM16.4101 7.98761C16.4068 7.99403 16.4035 8.00047 16.4001 8.00692M16.4101 7.98761L16.4001 8.00692M20.555 21.5036L21.3446 16.4925C21.3994 16.7202 21.437 16.9608 21.4614 17.2134C21.5202 17.8222 21.4999 18.4686 21.4752 19.1389C21.4742 19.1666 21.4732 19.1944 21.4721 19.2222C21.4495 19.8331 21.426 20.4679 21.4736 21.0579C21.4493 21.203 21.3939 21.2835 21.3245 21.3388C21.237 21.4084 21.0709 21.4818 20.7647 21.5036H20.555ZM20.7213 15.222C20.5296 15.1209 20.3128 15.0654 20.0964 15.0654H12.144C12.3573 14.8217 12.6751 14.6319 13.0624 14.4489C13.1543 14.4055 13.257 14.3596 13.3628 14.3124C13.5799 14.2155 13.81 14.1127 13.9856 14.0136C14.2152 13.8839 14.5735 13.6467 14.6496 13.2271C15.3727 13.5132 16.3204 13.7025 17.1781 13.8669C17.2644 13.8834 17.3501 13.8998 17.435 13.9159C17.8693 13.9987 18.2832 14.0776 18.6569 14.1622C19.1092 14.2646 19.4634 14.3673 19.6987 14.4771L19.6989 14.4772C20.1445 14.6847 20.4742 14.9377 20.7213 15.222ZM8.09495 11.7697C8.0899 11.7819 8.0848 11.7941 8.07967 11.8063C8.11552 11.8246 8.15014 11.8392 8.17935 11.8473C8.18271 11.8476 8.18615 11.8478 8.18968 11.8479C8.19128 11.8442 8.19289 11.8404 8.19449 11.8367C8.15872 11.8166 8.12559 11.794 8.09495 11.7697ZM7.55611 13.2017C7.60058 13.4166 7.72832 13.5825 7.83546 13.6952C7.95723 13.8232 8.10872 13.9402 8.26177 14.0454C8.52643 14.2273 8.85864 14.4153 9.17624 14.595C9.22367 14.6218 9.27077 14.6485 9.31727 14.6749C9.55266 14.8086 9.77621 14.9382 9.97427 15.0654H6.21628H2.04711C1.7635 15.0654 1.48088 15.1602 1.25439 15.3273C1.53115 15.0145 1.9135 14.7256 2.44675 14.4771L2.44695 14.477C2.6856 14.3657 3.04594 14.2618 3.50622 14.1581C3.87521 14.0749 4.28215 13.9973 4.7087 13.9159C4.80774 13.897 4.90785 13.878 5.00878 13.8585C5.87559 13.6918 6.83435 13.4983 7.55611 13.2017ZM0.524703 17.2027C0.562373 16.7897 0.644179 16.4097 0.790925 16.0639C0.771301 16.1822 0.770062 16.3084 0.790791 16.4411L0.790894 16.4418L1.5885 21.5036H1.37876C1.07251 21.4818 0.906538 21.4084 0.819498 21.339C0.748051 21.282 0.691599 21.1981 0.669576 21.0432C0.675752 20.4885 0.628492 19.9105 0.583216 19.3568C0.575488 19.2623 0.567818 19.1685 0.560482 19.0756C0.508099 18.4126 0.471413 17.787 0.524703 17.2027ZM8.77731 11.7359L8.49712 12.15C8.52437 12.1684 8.55183 12.1866 8.57952 12.2045C8.43832 12.5204 8.27618 12.8369 8.11778 13.0213C8.09636 13.0464 8.07067 13.0679 8.04283 13.084C8.05533 13.1694 8.10988 13.2578 8.19616 13.3489L8.29331 13.5167L8.77731 11.7359ZM15.7143 6.25693L15.7178 6.24395C15.7177 6.24828 15.7175 6.25261 15.7174 6.25694C15.7164 6.25694 15.7153 6.25693 15.7143 6.25693ZM10.0872 0.507532C10.0872 0.507516 10.0877 0.507327 10.0888 0.507031L10.0872 0.507532Z" stroke="black"/>
</g>
<defs>
<clipPath id="clip0_65_1014">
<rect width="22" height="22" fill="white"/>
</clipPath>
</defs>
</svg>
