<svg width="22" height="22" viewBox="0 0 22 22" fill="none" xmlns="http://www.w3.org/2000/svg">
<g clip-path="url(#clip0_65_1079)">
<path d="M2.04604 8.40259C2.45941 8.40259 2.79407 8.73848 2.79407 9.14804C2.79407 9.55745 2.45935 9.8935 2.04604 9.8935C1.6361 9.8935 1.30084 9.55826 1.30081 9.1481L2.04604 8.40259ZM2.04604 8.40259C1.63615 8.40259 1.30088 8.73766 1.30081 9.14804L2.04604 8.40259Z" stroke="black"/>
<path d="M20.6998 9.14804C20.6998 8.73848 20.3652 8.40259 19.9518 8.40259C19.5417 8.40259 19.2063 8.73782 19.2063 9.14804C19.2063 9.55812 19.5417 9.8935 19.9518 9.8935C20.3651 9.8935 20.6998 9.55745 20.6998 9.14804Z" stroke="black"/>
<path d="M5.75246 6.13715C6.49796 6.13715 7.10449 6.74438 7.10449 7.49193C7.10449 8.23751 6.49871 8.84415 5.75246 8.84415C5.00517 8.84415 4.39773 8.23667 4.39768 7.49203L5.75246 6.13715ZM5.75246 6.13715C5.00596 6.13715 4.39789 6.74515 4.39768 7.49193L5.75246 6.13715Z" stroke="black"/>
<path d="M0.500025 16.4087H1.61183V13.0216C1.61183 12.5211 1.70751 12.0472 1.87192 11.6104C1.10316 11.6974 0.50012 12.3546 0.50012 13.1488V13.1489L0.500025 16.4087Z" stroke="black"/>
<path d="M17.6023 7.49193C17.6023 6.7453 16.9942 6.13715 16.2475 6.13715C15.504 6.13715 14.8955 6.74477 14.8955 7.49193C14.8955 8.23711 15.5033 8.84415 16.2475 8.84415C16.995 8.84415 17.6023 8.2366 17.6023 7.49193Z" stroke="black"/>
<path d="M20.3882 16.4085L21.5 16.4085V13.1488C21.5 12.3563 20.8991 11.6994 20.1296 11.6107C20.2941 12.0482 20.3882 12.5219 20.3882 13.0215V16.4085Z" stroke="black"/>
<path d="M13.241 4.67259C13.241 3.43836 12.2354 2.43286 11.0012 2.43286C9.76644 2.43286 8.75893 3.439 8.75893 4.67259C8.75893 5.9079 9.76694 6.91489 11.0012 6.91489C12.235 6.91489 13.241 5.90855 13.241 4.67259Z" stroke="black"/>
<path d="M3.2903 17.8553H5.5254V12.4416C5.5254 11.7743 5.65569 11.1448 5.87611 10.5637C5.8349 10.561 5.79375 10.5596 5.75262 10.5596C4.39645 10.5596 3.29032 11.6647 3.29032 13.0219L3.2903 17.8553Z" stroke="black"/>
<path d="M16.4774 12.4414V17.8555L18.7101 17.8555V13.0216C18.7101 11.664 17.6064 10.5593 16.2478 10.5593C16.2074 10.5593 16.1671 10.5606 16.1268 10.5633C16.347 11.1443 16.4774 11.7738 16.4774 12.4414C16.4774 12.4414 16.4774 12.4414 16.4774 12.4414Z" stroke="black"/>
<path d="M7.20355 12.4421V19.5677H14.799V12.4421C14.799 10.348 13.0964 8.64441 11.0013 8.64441C8.90878 8.64441 7.20355 10.3482 7.20355 12.4421Z" stroke="black"/>
</g>
<defs>
<clipPath id="clip0_65_1079">
<rect width="22" height="22" fill="white" transform="matrix(-1 0 0 1 22 0)"/>
</clipPath>
</defs>
</svg>
