<svg width="51" height="50" viewBox="0 0 51 50" fill="none" xmlns="http://www.w3.org/2000/svg">
<path d="M18.4652 45.4328L18.4625 45.4292L15.9625 42.0959L15.0625 40.8958V41.8541H14.6458C11.102 41.8541 8.37585 41.3656 6.52576 39.8029C4.69536 38.2569 3.60416 35.5526 3.60416 30.8125V22.4792C3.60416 18.2022 4.90501 15.5842 6.67907 13.9803C8.46812 12.3628 10.8093 11.7118 13.0022 11.5189L13.0113 11.5181L13.0204 11.517C13.4904 11.4582 14.0501 11.4375 14.6458 11.4375H27.9792C31.6654 11.4375 34.4049 12.4141 36.2246 14.2338C38.0443 16.0535 39.0208 18.7929 39.0208 22.4792V30.8125C39.0208 31.4073 39.0001 31.9624 38.922 32.4892L38.9197 32.5048L38.9184 32.5204C38.7359 34.6801 38.0905 37.0054 36.4759 38.7866C34.8745 40.5532 32.2562 41.8541 27.9792 41.8541H27.1458H26.8989L26.7488 42.0502L24.1654 45.4253L24.1654 45.4252L24.1597 45.4329C23.4326 46.421 22.3892 46.9583 21.3125 46.9583C20.2358 46.9583 19.1923 46.421 18.4652 45.4328ZM24.9625 40.8209L24.9637 40.8192C25.4726 40.1348 26.2816 39.7291 27.1458 39.7291H27.9792C30.686 39.7291 32.8052 39.1602 34.3031 37.9039C35.8078 36.6419 36.6036 34.7559 36.8099 32.3017C36.8746 31.7806 36.8958 31.304 36.8958 30.8125V22.4792C36.8958 19.5096 36.2318 17.2487 34.7207 15.7376C33.2097 14.2265 30.9487 13.5625 27.9792 13.5625H14.6458C14.1531 13.5625 13.6796 13.5839 13.2257 13.627C10.7284 13.8427 8.82389 14.643 7.55481 16.1522C6.2925 17.6533 5.72916 19.7733 5.72916 22.4792V30.8125C5.72916 34.3971 6.27312 36.7029 7.7725 38.07C9.25921 39.4255 11.5536 39.7291 14.6458 39.7291H15.4792C16.2594 39.7291 17.1746 40.1758 17.6648 40.8031L20.1593 44.1498C20.1597 44.1503 20.16 44.1508 20.1604 44.1513C20.443 44.5361 20.8353 44.8229 21.3125 44.8229C21.7893 44.8229 22.1814 44.5365 22.464 44.1521C22.4646 44.1514 22.4651 44.1506 22.4657 44.1498L24.9625 40.8209Z" stroke="black"/>
<path d="M21.313 29.0624C20.4257 29.0624 19.7296 28.352 19.7296 27.4791C19.7296 26.6094 20.4433 25.8958 21.313 25.8958C22.1827 25.8958 22.8963 26.6094 22.8963 27.4791C22.8963 28.352 22.2002 29.0624 21.313 29.0624Z" stroke="black"/>
<path d="M27.9791 29.0624C27.0918 29.0624 26.3957 28.352 26.3957 27.4791C26.3957 26.6094 27.1094 25.8958 27.9791 25.8958C28.8487 25.8958 29.5624 26.6094 29.5624 27.4791C29.5624 28.3488 28.8487 29.0624 27.9791 29.0624Z" stroke="black"/>
<path d="M14.6662 29.0624C13.779 29.0624 13.0829 28.352 13.0829 27.4791C13.0829 26.6094 13.7966 25.8958 14.6662 25.8958C15.5359 25.8958 16.2496 26.6094 16.2496 27.4791C16.2496 28.3488 15.5359 29.0624 14.6662 29.0624Z" stroke="black"/>
<path d="M37.1158 33.1173L37.1099 33.111L37.1038 33.1049C36.8885 32.8896 36.7865 32.57 36.8289 32.2565C36.8957 31.7877 36.9169 31.3043 36.9169 30.8126V22.4793C36.9169 19.5097 36.2529 17.2488 34.7418 15.7377C33.2308 14.2266 30.9698 13.5626 28.0003 13.5626H14.6669C14.1733 13.5626 13.6992 13.584 13.2446 13.6273L13.2345 13.6283L13.2244 13.6297C12.9272 13.6702 12.5992 13.5616 12.3689 13.349C12.1311 13.1082 12.0134 12.7943 12.0399 12.5037L12.0402 12.5C12.2228 10.309 12.8735 7.96831 14.4933 6.17945C16.0998 4.40519 18.7232 3.10425 23.0002 3.10425H36.3336C40.0199 3.10425 42.7593 4.08082 44.579 5.90052C46.3987 7.72022 47.3752 10.4597 47.3752 14.1459V22.4793C47.3752 26.7562 46.0744 29.3742 44.3004 30.9782C42.5172 32.5903 40.1856 33.2423 37.999 33.4376H37.8753C37.5875 33.4376 37.3064 33.3215 37.1158 33.1173ZM11.542 12.4584L11.5419 12.4584L11.542 12.4584ZM14.4322 10.815L14.2747 11.4376H14.917H27.9794C31.6657 11.4376 34.4052 12.4142 36.2249 14.2339C38.0446 16.0536 39.0211 18.793 39.0211 22.4793V30.5418V31.1803L39.641 31.0272C41.5144 30.5643 42.9342 29.6297 43.8737 28.172C44.8042 26.7284 45.2295 24.8245 45.2295 22.4793V14.1459C45.2295 11.1764 44.5654 8.91542 43.0544 7.40435C41.5433 5.89328 39.2823 5.22925 36.3128 5.22925H22.9795C20.6341 5.22925 18.7353 5.65459 17.2941 6.58526C15.8394 7.52472 14.9055 8.94379 14.4322 10.815Z" stroke="black"/>
</svg>
