<svg width="22" height="22" viewBox="0 0 22 22" fill="none" xmlns="http://www.w3.org/2000/svg">
<path fill-rule="evenodd" clip-rule="evenodd" d="M10.8981 11.5672H10.9274C13.6114 11.5672 15.794 9.38457 15.794 6.70057C15.794 4.01657 13.6114 1.83307 10.9274 1.83307C8.24252 1.83307 6.05902 4.01657 6.05902 6.69782C6.04985 9.37449 8.2196 11.5589 10.8981 11.5672ZM7.36802 6.70057C7.36802 4.73799 8.96485 3.14207 10.9274 3.14207C12.8891 3.14207 14.485 4.73799 14.485 6.70057C14.485 8.66224 12.8891 10.2591 10.9274 10.2591H10.9009C8.94652 10.2517 7.3616 8.65674 7.36802 6.70057Z" fill="#2E2C34"/>
<path fill-rule="evenodd" clip-rule="evenodd" d="M3.6665 16.6586C3.6665 20.0475 9.13167 20.0475 10.9274 20.0475C14.0432 20.0475 18.1865 19.6983 18.1865 16.677C18.1865 13.288 12.7232 13.288 10.9274 13.288C7.81075 13.288 3.6665 13.6373 3.6665 16.6586ZM5.0415 16.6586C5.0415 15.334 7.0215 14.663 10.9274 14.663C14.8324 14.663 16.8115 15.3405 16.8115 16.677C16.8115 18.0015 14.8324 18.6725 10.9274 18.6725C7.0215 18.6725 5.0415 17.9951 5.0415 16.6586Z" fill="#2E2C34"/>
</svg>
