<svg width="51" height="50" viewBox="0 0 51 50" fill="none" xmlns="http://www.w3.org/2000/svg">
<path d="M19.3463 9.09082V16.051M19.3463 33.9488V40.909M35.7222 9.09082H15.2574C7.41938 9.09082 5.22965 10.9204 5.04547 18.0397C8.99517 18.0397 12.1877 21.1618 12.1877 24.9999C12.1877 28.838 8.99517 31.9403 5.04547 31.9601C5.22965 39.0795 7.41938 40.909 15.2574 40.909H35.7222C43.9081 40.909 45.9546 38.9204 45.9546 30.9658V19.034C45.9546 11.0795 43.9081 9.09082 35.7222 9.09082Z" stroke="#2E2C34" stroke-width="1.5" stroke-linecap="round" stroke-linejoin="round"/>
<path d="M31.8021 19.4375L33.0938 22.0417C33.2188 22.2917 33.4688 22.4792 33.7396 22.5208L36.6146 22.9375C37.3229 23.0417 37.6146 23.9167 37.0938 24.4167L35.0104 26.4375C34.8021 26.625 34.7188 26.9167 34.7604 27.2083L35.2604 30.0625C35.3854 30.7708 34.6354 31.3125 34.0104 30.9792L31.4479 29.625C31.3214 29.5633 31.1824 29.5313 31.0417 29.5313C30.9009 29.5313 30.762 29.5633 30.6354 29.625L28.0729 30.9792C27.4271 31.3125 26.6979 30.7708 26.8229 30.0625L27.3229 27.2083C27.3461 27.0692 27.3355 26.9266 27.292 26.7924C27.2485 26.6582 27.1734 26.5365 27.0729 26.4375L25.0104 24.4167C24.8944 24.3039 24.8122 24.1609 24.7732 24.0038C24.7343 23.8468 24.7401 23.682 24.7899 23.528C24.8398 23.3741 24.9318 23.2372 25.0554 23.1328C25.1791 23.0285 25.3295 22.9608 25.4896 22.9375L28.3646 22.5208C28.6563 22.4792 28.8854 22.3125 29.0104 22.0417L30.2813 19.4375C30.5729 18.7917 31.4896 18.7917 31.8021 19.4375Z" stroke="#2E2C34" stroke-linecap="round" stroke-linejoin="round"/>
</svg>
