<svg width="22" height="22" viewBox="0 0 22 22" fill="none" xmlns="http://www.w3.org/2000/svg">
<path d="M8.29235 4V7.0625M8.29235 14.9375V18M15.4977 4H6.49325C3.04452 4 2.08104 4.805 2 7.9375C3.73787 7.9375 5.14257 9.31125 5.14257 11C5.14257 12.6887 3.73787 14.0538 2 14.0625C2.08104 17.195 3.04452 18 6.49325 18H15.4977C19.0995 18 20 17.125 20 13.625V8.375C20 4.875 19.0995 4 15.4977 4Z" stroke="#2E2C34" stroke-width="1.5" stroke-linecap="round" stroke-linejoin="round"/>
<path d="M13.7729 8.55251L14.3412 9.69834C14.3962 9.80834 14.5062 9.89084 14.6254 9.90918L15.8904 10.0925C16.202 10.1383 16.3304 10.5233 16.1012 10.7433L15.1845 11.6325C15.0929 11.715 15.0562 11.8433 15.0745 11.9717L15.2945 13.2275C15.3495 13.5392 15.0195 13.7775 14.7445 13.6308L13.617 13.035C13.5613 13.0079 13.5002 12.9938 13.4383 12.9938C13.3763 12.9938 13.3152 13.0079 13.2595 13.035L12.132 13.6308C11.8479 13.7775 11.527 13.5392 11.582 13.2275L11.802 11.9717C11.8122 11.9105 11.8076 11.8477 11.7884 11.7887C11.7693 11.7296 11.7362 11.6761 11.692 11.6325L10.7845 10.7433C10.7335 10.6937 10.6973 10.6308 10.6802 10.5617C10.663 10.4926 10.6656 10.4201 10.6875 10.3524C10.7094 10.2846 10.7499 10.2244 10.8043 10.1785C10.8587 10.1325 10.9249 10.1028 10.9954 10.0925L12.2604 9.90918C12.3887 9.89084 12.4895 9.81751 12.5445 9.69834L13.1037 8.55251C13.232 8.26834 13.6354 8.26834 13.7729 8.55251Z" stroke="#2E2C34" stroke-linecap="round" stroke-linejoin="round"/>
</svg>
