<svg width="50" height="50" viewBox="0 0 50 50" fill="none" xmlns="http://www.w3.org/2000/svg">
<path d="M33.3333 4.16675H16.6667C8.33333 4.16675 4.16667 8.33342 4.16667 16.6667V43.7501C4.16667 44.8959 5.10417 45.8334 6.25 45.8334H33.3333C41.6667 45.8334 45.8333 41.6668 45.8333 33.3334V16.6667C45.8333 8.33342 41.6667 4.16675 33.3333 4.16675Z" stroke="#292D32" stroke-width="1.5" stroke-linecap="round" stroke-linejoin="round"/>
<path d="M26.8958 16.3334L16.0833 27.1459C15.6667 27.5626 15.2709 28.3751 15.1875 28.9584L14.6042 33.0834C14.3959 34.5834 15.4375 35.6251 16.9375 35.4167L21.0625 34.8334C21.6458 34.7501 22.4584 34.3542 22.875 33.9376L33.6875 23.1251C35.5417 21.2709 36.4375 19.1042 33.6875 16.3542C30.9375 13.5834 28.7708 14.4584 26.8958 16.3334Z" stroke="#292D32" stroke-width="1.5" stroke-miterlimit="10" stroke-linecap="round" stroke-linejoin="round"/>
<path d="M25.3542 17.875C26.2709 21.1458 28.8334 23.7292 32.125 24.6458" stroke="#292D32" stroke-width="1.5" stroke-miterlimit="10" stroke-linecap="round" stroke-linejoin="round"/>
</svg>
